<svg preserveAspectRatio="none" width="100%" height="100%" overflow="visible" style="display: block;" viewBox="0 0 18 18" fill="none" xmlns="http://www.w3.org/2000/svg">
<g id="checkbox-circle-line">
<path id="Vector" d="M3 9C3 5.68629 5.68629 3 9 3C12.3137 3 15 5.68629 15 9C15 12.3137 12.3137 15 9 15C5.68629 15 3 12.3137 3 9ZM9 1.5C4.85786 1.5 1.5 4.85786 1.5 9C1.5 13.1421 4.85786 16.5 9 16.5C13.1421 16.5 16.5 13.1421 16.5 9C16.5 4.85786 13.1421 1.5 9 1.5ZM13.0928 7.09283L12.0322 6.03217L8.25 9.81435L6.15533 7.71968L5.09467 8.78032L8.25 11.9356L13.0928 7.09283Z" fill="var(--fill-0, #EF6A1A)"/>
</g>
</svg>
