<svg preserveAspectRatio="none" width="100%" height="100%" overflow="visible" style="display: block;" viewBox="0 0 48 48" fill="none" xmlns="http://www.w3.org/2000/svg">
<g id="lucide/speech">
<path id="Vector" d="M17.6 40V31.8L21.4 32.2C22.5063 32.1385 23.5532 31.6798 24.3483 30.9082C25.1435 30.1366 25.6334 29.1039 25.728 28V16.6C25.7413 13.7187 24.6094 10.9501 22.5814 8.90335C20.5533 6.85657 17.7953 5.69926 14.914 5.686C12.0327 5.67274 9.26412 6.80462 7.21735 8.83264C5.17058 10.8607 4.01326 13.6187 4 16.5C4 22.1 5.312 22.608 6 25.6C6.46497 27.4069 6.48487 29.2997 6.058 31.116L4 40M39.6 35.6C42.4116 32.788 43.9917 28.9747 43.9928 24.9982C43.9939 21.0218 42.416 17.2075 39.606 14.394M34 30C34.6543 29.3458 35.1725 28.5683 35.5245 27.7126C35.8765 26.8569 36.0553 25.9399 36.0507 25.0146C36.046 24.0893 35.858 23.1741 35.4974 22.322C35.1368 21.4698 34.6109 20.6976 33.95 20.05" stroke="var(--stroke-0, #EF6A1A)" stroke-width="4" stroke-linecap="round" stroke-linejoin="round"/>
</g>
</svg>
