<svg preserveAspectRatio="none" width="100%" height="100%" overflow="visible" style="display: block;" viewBox="0 0 48 48" fill="none" xmlns="http://www.w3.org/2000/svg">
<g id="lucide/align-vertical-justify-center">
<path id="Vector" d="M4 24H44M14 32H34C36.2091 32 38 33.7909 38 36V40C38 42.2091 36.2091 44 34 44H14C11.7909 44 10 42.2091 10 40V36C10 33.7909 11.7909 32 14 32ZM18 4H30C32.2091 4 34 5.79086 34 8V12C34 14.2091 32.2091 16 30 16H18C15.7909 16 14 14.2091 14 12V8C14 5.79086 15.7909 4 18 4Z" stroke="var(--stroke-0, #EF6A1A)" stroke-width="4" stroke-linecap="round" stroke-linejoin="round"/>
</g>
</svg>
