<svg preserveAspectRatio="none" width="100%" height="100%" overflow="visible" style="display: block;" viewBox="0 0 36 36" fill="none" xmlns="http://www.w3.org/2000/svg">
<g id="shield-check-line">
<path id="Vector" d="M18 1.5L30.3253 4.23897C31.0117 4.39149 31.5 5.00021 31.5 5.70326V20.6834C31.5 23.6925 29.9961 26.5026 27.4923 28.1718L18 34.5L8.5077 28.1718C6.00392 26.5026 4.5 23.6925 4.5 20.6834V5.70326C4.5 5.00021 4.9883 4.39149 5.67461 4.23897L18 1.5ZM18 4.57318L7.5 6.90651V20.6834C7.5 22.6895 8.5026 24.5628 10.1718 25.6756L18 30.8945L25.8282 25.6756C27.4974 24.5628 28.5 22.6895 28.5 20.6834V6.90651L18 4.57318ZM24.6786 12.3327L26.7999 14.4541L17.2539 24L10.89 17.6361L13.0113 15.5146L17.2528 19.7564L24.6786 12.3327Z" fill="var(--fill-0, white)"/>
</g>
</svg>
