<svg preserveAspectRatio="none" width="100%" height="100%" overflow="visible" style="display: block;" viewBox="0 0 18 18" fill="none" xmlns="http://www.w3.org/2000/svg">
<g id="time-zone-line">
<path id="Vector" d="M3 9C3 7.38477 3.63826 5.91861 4.67632 4.83997C4.76767 4.92334 4.84684 5.02906 4.90597 5.16192C5.05897 5.50522 5.05897 5.8584 5.05897 6.17073C5.05866 6.41699 5.05837 6.65051 5.13744 6.81977C5.24582 7.05101 5.7123 7.1492 6.12411 7.23552L6.13886 7.23862C6.28135 7.26862 6.42758 7.29941 6.56098 7.33632C6.94054 7.44175 7.23416 7.78238 7.46954 8.0559C7.5672 8.16983 7.71142 8.33722 7.78372 8.37877C7.82145 8.3517 7.9425 8.2206 8.00242 8.00513C8.04802 7.84103 8.03505 7.69477 7.96793 7.61572C7.5486 7.12084 7.5714 6.1674 7.701 5.81621C7.90515 5.26205 8.54288 5.30294 9.009 5.33323L9.01335 5.33351C9.18555 5.34459 9.348 5.35505 9.46927 5.33982C9.82275 5.29547 9.9909 4.87782 10.0958 4.61724C10.1294 4.53368 10.1566 4.46626 10.1812 4.4325C10.3798 4.16044 10.949 3.7636 11.3639 3.48362C12.9181 4.15049 14.1338 5.45494 14.6822 7.06788C15.3221 7.28545 15.9137 7.60815 16.436 8.01533C15.9538 4.33853 12.8083 1.5 9 1.5C4.85786 1.5 1.5 4.85786 1.5 9C1.5 12.8083 4.33853 15.9538 8.01533 16.436C7.60815 15.9137 7.28545 15.3221 7.06788 14.6822C4.7021 13.8779 3 11.6377 3 9ZM12.75 9.75C11.0932 9.75 9.75 11.0932 9.75 12.75C9.75 14.4068 11.0932 15.75 12.75 15.75C14.4068 15.75 15.75 14.4068 15.75 12.75C15.75 11.0932 14.4068 9.75 12.75 9.75ZM8.25 12.75C8.25 10.2647 10.2647 8.25 12.75 8.25C15.2353 8.25 17.25 10.2647 17.25 12.75C17.25 15.2353 15.2353 17.25 12.75 17.25C10.2647 17.25 8.25 15.2353 8.25 12.75ZM12 10.5V13.5H15V12H13.5V10.5H12Z" fill="var(--fill-0, #EF6A1A)"/>
</g>
</svg>
